<?xml version="1.0" encoding="UTF-8" standalone="no"?>
<svg
   width="16"
   height="16"
   fill="currentColor"
   class="bi bi-box-arrow-right"
   viewBox="0 0 16 16"
   version="1.1"
   id="svg1069"
   sodipodi:docname="logout.svg"
   inkscape:version="1.2.2 (732a01da63, 2022-12-09, custom)"
   xmlns:inkscape="http://www.inkscape.org/namespaces/inkscape"
   xmlns:sodipodi="http://sodipodi.sourceforge.net/DTD/sodipodi-0.dtd"
   xmlns="http://www.w3.org/2000/svg"
   xmlns:svg="http://www.w3.org/2000/svg">
  <defs
     id="defs1073" />
  <sodipodi:namedview
     id="namedview1071"
     pagecolor="#ffffff"
     bordercolor="#000000"
     borderopacity="0.25"
     inkscape:showpageshadow="2"
     inkscape:pageopacity="0.0"
     inkscape:pagecheckerboard="0"
     inkscape:deskcolor="#d1d1d1"
     showgrid="false"
     inkscape:zoom="50.8125"
     inkscape:cx="7.9901599"
     inkscape:cy="8"
     inkscape:window-width="1920"
     inkscape:window-height="1016"
     inkscape:window-x="0"
     inkscape:window-y="0"
     inkscape:window-maximized="1"
     inkscape:current-layer="svg1069" />
  <path
     fill-rule="evenodd"
     d="M10 12.5a.5.5 0 0 1-.5.5h-8a.5.5 0 0 1-.5-.5v-9a.5.5 0 0 1 .5-.5h8a.5.5 0 0 1 .5.5v2a.5.5 0 0 0 1 0v-2A1.5 1.5 0 0 0 9.5 2h-8A1.5 1.5 0 0 0 0 3.5v9A1.5 1.5 0 0 0 1.5 14h8a1.5 1.5 0 0 0 1.5-1.5v-2a.5.5 0 0 0-1 0v2z"
     id="path1065" />
  <path
     fill-rule="evenodd"
     d="M15.854 8.354a.5.5 0 0 0 0-.708l-3-3a.5.5 0 0 0-.708.708L14.293 7.5H5.5a.5.5 0 0 0 0 1h8.793l-2.147 2.146a.5.5 0 0 0 .708.708l3-3z"
     id="path1067" />
  <path
     style="fill:#d92332;stroke-width:0.0196802"
     d="M 1.275884,13.97264 C 0.93364883,13.914307 0.64626352,13.758719 0.41149875,13.50467 0.17534386,13.249117 0.05422414,12.974714 0.01932793,12.616188 c -0.02434435,-0.250116 -0.02434435,-8.9822599 0,-9.2323758 C 0.05723277,2.9943747 0.18276812,2.729901 0.46248462,2.4501845 0.66357158,2.2490975 0.84784647,2.1391719 1.1119311,2.0627696 L 1.2693727,2.0172202 H 5.500615 9.7318573 l 0.1574416,0.045549 c 0.2573331,0.074449 0.4485201,0.1869875 0.6414451,0.3775748 0.190518,0.1882097 0.301969,0.3616517 0.385708,0.600246 l 0.05526,0.1574416 0.0057,1.200492 c 0.0063,1.3395373 0.01033,1.2951329 -0.129288,1.4365741 -0.09991,0.1012081 -0.206376,0.1467251 -0.344429,0.1472496 C 10.363915,5.982879 10.266801,5.9442791 10.16812,5.8489775 10.018839,5.7048092 10.028174,5.7872331 10.01722,4.5166052 10.00637,3.2579487 10.011945,3.3125714 9.8788641,3.1610009 9.8433565,3.12056 9.7780418,3.0680676 9.7337206,3.044351 L 9.6531365,3.00123 H 5.500615 1.3480935 L 1.2675094,3.044351 C 1.1735998,3.0946025 1.0712979,3.2048664 1.0258284,3.3048418 0.99660078,3.3691054 0.99384994,3.7729908 0.99384994,8 c 0,4.227009 0.002751,4.630895 0.0319785,4.695158 0.04547,0.09998 0.1477714,0.210239 0.241681,0.260491 l 0.080584,0.04312 H 5.500615 9.6531365 l 0.080584,-0.04312 c 0.044321,-0.02372 0.1096359,-0.07621 0.1451435,-0.11665 0.133081,-0.15157 0.127506,-0.09695 0.138356,-1.355604 0.01095,-1.270628 0.0016,-1.188204 0.1509,-1.332373 0.09868,-0.0953 0.195795,-0.1339 0.335553,-0.13337 0.138053,5.26e-4 0.244521,0.04604 0.344429,0.14725 0.139623,0.141441 0.135627,0.09704 0.129288,1.436574 l -0.0057,1.200492 -0.05526,0.157442 c -0.170377,0.485445 -0.538011,0.831752 -1.0475431,0.986772 -0.1116506,0.03397 -0.3216889,0.03587 -4.3092534,0.03891 -2.3055351,0.0018 -4.2332323,-0.0038 -4.2837716,-0.01246 z"
     id="path1248" />
  <path
     style="fill:#d92332;stroke-width:0.0196802"
     d="m 12.378716,11.475993 c -0.139887,-0.0458 -0.259017,-0.147376 -0.326002,-0.277961 -0.05095,-0.09932 -0.04776,-0.300968 0.0064,-0.403444 0.02452,-0.04642 0.494365,-0.53093 1.144998,-1.1807459 0.606876,-0.6061139 1.103411,-1.1086969 1.103411,-1.1168512 0,-0.00815 -2.008118,-0.015021 -4.4624845,-0.015258 C 5.565765,8.4813182 5.3792836,8.4798239 5.3033763,8.4453416 5.1266482,8.3650598 5.0193146,8.196786 5.0193146,8 c 0,-0.196786 0.1073336,-0.3650598 0.2840617,-0.4453416 0.075907,-0.034482 0.2623887,-0.035977 4.5416422,-0.036391 2.4543665,-2.378e-4 4.4624845,-0.0071 4.4624845,-0.015258 0,-0.00815 -0.496535,-0.5107373 -1.103411,-1.1168511 -0.650633,-0.6498162 -1.120476,-1.1343277 -1.144998,-1.1807459 -0.0572,-0.1082702 -0.05739,-0.3043567 -4.05e-4,-0.4132842 0.04843,-0.092583 0.14496,-0.1878222 0.241433,-0.238216 0.102145,-0.053356 0.29955,-0.048771 0.413284,0.0096 0.06168,0.031657 0.556132,0.5122463 1.629195,1.5835279 1.678995,1.6762094 1.64053,1.632763 1.64053,1.8529598 0,0.2201968 0.03846,0.1767504 -1.64053,1.8529598 -1.076981,1.0751933 -1.566561,1.5509993 -1.626786,1.5810173 -0.09413,0.04692 -0.259269,0.0675 -0.337099,0.04202 z"
     id="path1250" />
</svg>
