<?xml version="1.0" encoding="UTF-8" standalone="no"?>
<svg
   width="16"
   height="16"
   fill="currentColor"
   class="bi bi-list"
   viewBox="0 0 16 16"
   version="1.1"
   id="svg4181"
   sodipodi:docname="list.svg"
   inkscape:version="1.2.2 (732a01da63, 2022-12-09, custom)"
   xmlns:inkscape="http://www.inkscape.org/namespaces/inkscape"
   xmlns:sodipodi="http://sodipodi.sourceforge.net/DTD/sodipodi-0.dtd"
   xmlns="http://www.w3.org/2000/svg"
   xmlns:svg="http://www.w3.org/2000/svg">
  <defs
     id="defs4185" />
  <sodipodi:namedview
     id="namedview4183"
     pagecolor="#ffffff"
     bordercolor="#000000"
     borderopacity="0.25"
     inkscape:showpageshadow="2"
     inkscape:pageopacity="0.0"
     inkscape:pagecheckerboard="0"
     inkscape:deskcolor="#d1d1d1"
     showgrid="false"
     inkscape:zoom="49.25"
     inkscape:cx="8"
     inkscape:cy="8.0101523"
     inkscape:window-width="1920"
     inkscape:window-height="1016"
     inkscape:window-x="0"
     inkscape:window-y="0"
     inkscape:window-maximized="1"
     inkscape:current-layer="svg4181" />
  <path
     fill-rule="evenodd"
     d="M2.5 12a.5.5 0 0 1 .5-.5h10a.5.5 0 0 1 0 1H3a.5.5 0 0 1-.5-.5zm0-4a.5.5 0 0 1 .5-.5h10a.5.5 0 0 1 0 1H3a.5.5 0 0 1-.5-.5zm0-4a.5.5 0 0 1 .5-.5h10a.5.5 0 0 1 0 1H3a.5.5 0 0 1-.5-.5z"
     id="path4179" />
  <path
     style="fill:#d92332;stroke-width:0.0203046"
     d="M 2.8375222,8.4584226 C 2.7160346,8.4149363 2.6265993,8.3337094 2.5677364,8.213398 2.4569065,7.9868699 2.5351014,7.7172867 2.7502135,7.5842931 l 0.099394,-0.061451 H 8 13.150393 l 0.09939,0.061451 c 0.06161,0.038089 0.122756,0.099237 0.160845,0.1608443 0.05439,0.087979 0.06145,0.1172486 0.06145,0.2548626 0,0.137614 -0.0071,0.1668837 -0.06145,0.2548626 -0.03809,0.061606 -0.09924,0.1227565 -0.160843,0.1608443 l -0.09939,0.06145 -5.1183452,0.00427 C 3.7914923,8.4849605 2.9006403,8.4810157 2.8375222,8.4584226 Z"
     id="path5756" />
  <path
     style="fill:#d92332;stroke-width:0.0203046"
     d="M 2.8375222,4.4584226 C 2.7160346,4.4149363 2.6265993,4.3337094 2.5677364,4.213398 2.4569065,3.9868699 2.5351014,3.7172867 2.7502135,3.5842931 l 0.099394,-0.06145 H 8 13.150393 l 0.09939,0.06145 c 0.06161,0.038089 0.122756,0.099237 0.160845,0.1608443 0.05439,0.087979 0.06145,0.1172486 0.06145,0.2548626 0,0.137614 -0.0071,0.1668837 -0.06145,0.2548626 -0.03809,0.061606 -0.09924,0.1227565 -0.160843,0.1608443 l -0.09939,0.061451 -5.1183452,0.00427 C 3.7914923,4.4849605 2.9006403,4.4810157 2.8375222,4.4584226 Z"
     id="path5758" />
  <path
     style="fill:#d92332;stroke-width:0.0203046"
     d="M 2.8375222,12.458423 C 2.7160346,12.414936 2.6265993,12.333709 2.5677364,12.213398 2.4569065,11.98687 2.5351014,11.717287 2.7502135,11.584293 l 0.099394,-0.06145 H 8 13.150393 l 0.09939,0.06145 c 0.06161,0.03809 0.122756,0.09924 0.160845,0.160844 0.05439,0.08798 0.06145,0.117249 0.06145,0.254863 0,0.137614 -0.0071,0.166884 -0.06145,0.254863 -0.03809,0.06161 -0.09924,0.122756 -0.160843,0.160844 l -0.09939,0.06145 -5.1183452,0.0043 c -4.2405585,0.0035 -5.1314105,-4.09e-4 -5.1945286,-0.023 z"
     id="path5760" />
</svg>
